<svg xmlns="http://www.w3.org/2000/svg" viewBox="0 0 1000 600"><filter id="b"><feGaussianBlur stdDeviation="12" /></filter><path fill="#6e7e74" d="M0 0h1000v597H0z"/><g filter="url(#b)" transform="translate(2 2) scale(3.90625)" fill-opacity=".5"><ellipse fill="#c7dcf6" rx="1" ry="1" transform="matrix(4.04314 -42.02276 172.16358 16.56438 137.7 0)"/><ellipse fill="#252e14" cx="74" cy="61" rx="58" ry="32"/><ellipse fill="#404007" rx="1" ry="1" transform="matrix(-3.2746 -31.40835 169.4884 -17.67065 111.7 152)"/><ellipse fill="#544b24" cx="16" cy="82" rx="49" ry="49"/><path fill="#c3e3e7" d="M76 95h43v25H76z"/><ellipse fill="#7fa3b5" rx="1" ry="1" transform="matrix(59.05693 -6.65993 2.03647 18.05839 185 64.2)"/><ellipse fill="#96a9b9" cx="14" cy="4" rx="32" ry="32"/><ellipse fill="#45748e" cx="214" cy="105" rx="54" ry="26"/><ellipse fill="#414615" rx="1" ry="1" transform="matrix(-8.7142 -14.9333 25.43497 -14.84236 133 131.2)"/><path fill="#51502c" d="M102 73.5h54v17h-54z"/></g></svg>